<svg width="60" height="94" viewBox="0 0 60 94" fill="none" xmlns="http://www.w3.org/2000/svg">
<path d="M26.2181 90.7468C24.6271 90.7468 23.0361 90.7198 21.4471 90.7548C19.9068 90.7275 18.3772 90.4938 16.8991 90.0598C15.5831 89.7328 14.2711 89.3858 12.9441 89.1098C12.6167 89.0871 12.2972 88.9996 12.0039 88.8524C11.7106 88.7053 11.4494 88.5014 11.2355 88.2526C11.0215 88.0038 10.8591 87.715 10.7576 87.403C10.6561 87.0909 10.6175 86.7619 10.6441 86.4348C10.4631 83.5438 11.1531 80.7688 11.6121 77.9578C11.9831 75.6848 12.2921 73.4018 12.6001 71.1188C12.9281 68.6958 13.0071 66.2498 13.2191 63.8188C13.4291 61.4118 13.4111 59.0188 13.4191 56.6188C13.4411 52.0748 13.3981 47.5298 13.3821 42.9858C13.3821 42.6218 13.4041 42.2578 13.3821 41.8958C13.3481 41.3368 13.6441 41.1798 14.1351 41.2198C14.2708 41.2114 14.407 41.215 14.5421 41.2308C16.5023 41.6194 18.5123 41.6907 20.4951 41.4418C22.3261 41.2579 24.1434 40.9573 25.9361 40.5418C26.5511 40.4318 27.1571 40.2418 27.7751 40.1978C27.9217 40.1986 28.0661 40.2331 28.1972 40.2986C28.3283 40.3642 28.4425 40.459 28.5311 40.5758C28.7259 40.9603 29.0262 41.2815 29.3969 41.5016C29.7675 41.7217 30.1932 41.8317 30.6241 41.8188C31.1026 41.7923 31.5735 41.9476 31.9423 42.2536C32.3112 42.5595 32.5508 42.9936 32.6131 43.4688C32.7722 43.9277 33.0207 44.3505 33.3441 44.7128C33.6581 45.1498 34.0191 45.5538 34.3721 45.9608C34.5491 46.1608 34.7191 46.4308 34.9501 46.5218C36.0621 46.9618 37.0001 47.8828 38.3141 47.7658C38.4708 47.7389 38.6319 47.7703 38.767 47.8542C38.902 47.938 39.0017 48.0684 39.0471 48.2208C39.1376 48.4264 39.2398 48.6268 39.3531 48.8208C39.654 49.4026 40.1125 49.8879 40.6763 50.2212C41.2401 50.5546 41.8863 50.7225 42.5411 50.7058C43.2157 50.5775 43.8287 50.2287 44.2837 49.7144C44.7387 49.2 45.01 48.5491 45.0551 47.8638C45.2061 46.7948 45.2361 45.7078 45.3611 44.6338C45.5061 43.3858 45.7371 42.1478 45.8521 40.8988C45.9351 39.9988 45.8831 39.0838 45.9121 38.1758C45.9447 38.014 46.0042 37.8589 46.0881 37.7168C46.2311 37.8078 46.4431 37.8668 46.5051 37.9968C46.6889 38.3053 46.8025 38.6505 46.8381 39.0078C46.8261 40.0908 46.7381 41.1738 46.6751 42.2558C46.6551 42.6188 46.6241 42.9818 46.6241 43.3448C46.6181 47.5248 46.5181 51.7088 46.6491 55.8848C46.7445 58.8242 47.1128 61.7485 47.7491 64.6198C48.4701 67.8838 49.1841 71.1508 49.8241 74.4318C50.3521 77.1318 50.7571 79.8618 51.2401 82.5738C51.3333 83.0604 51.4826 83.5346 51.6851 83.9868C52.3111 85.4248 52.1441 86.0098 50.6851 86.6738C49.4605 87.2641 48.1917 87.7576 46.8901 88.1498C44.0198 88.9697 41.0904 89.5661 38.1281 89.9338C36.3341 90.1418 34.5571 90.5068 32.7601 90.6658C31.2251 90.8018 29.6731 90.7478 28.1281 90.7718C27.4921 90.7818 26.8561 90.7718 26.2201 90.7718L26.2181 90.7468Z" fill="#FDB523"/>
<path d="M59.6911 56.3078C59.6911 58.2158 59.7611 60.1268 59.6731 62.0308C59.5651 64.3848 59.3401 66.7308 59.1341 69.0808C59.1046 69.4435 59.0005 69.7961 58.8285 70.1167C58.6564 70.4372 58.42 70.7188 58.1341 70.9438C57.164 71.8511 55.8781 72.344 54.5501 72.3178C53.4186 72.2817 52.286 72.3362 51.1631 72.4809C50.4001 72.5699 50.4191 72.6519 50.5351 73.3409C50.9879 76.3866 51.7605 79.3761 52.8401 82.2598C53.0783 82.704 53.1746 83.2106 53.1162 83.7112C53.0577 84.2118 52.8472 84.6825 52.5131 85.0598C52.1811 86.7708 50.8341 87.3518 49.4291 87.9738C45.93 89.4709 42.2894 90.6129 38.5621 91.3829C34.8454 92.1987 31.07 92.719 27.2711 92.9389C24.0067 93.1561 20.7304 93.1227 17.4711 92.8388C15.1237 92.6547 12.7978 92.2577 10.5221 91.6528C8.71258 91.2032 7.01212 90.3938 5.52212 89.2729C4.64517 88.6906 3.97334 87.8476 3.60154 86.8628C3.22974 85.8781 3.17677 84.8014 3.45012 83.7849C4.12412 81.1089 4.80112 78.4342 5.48112 75.7608C6.51981 71.8201 7.17124 67.7873 7.42612 63.7198C7.60412 60.4018 7.63512 57.0928 7.54612 53.7828C7.46412 50.7018 7.24612 47.6208 6.99412 44.5478C6.86612 42.9728 6.52612 41.4168 6.31412 39.8478C6.22693 39.2638 6.20046 38.6723 6.23512 38.0828C6.2466 37.8328 6.30764 37.5875 6.41471 37.3612C6.52177 37.1349 6.67272 36.9322 6.85879 36.7647C7.04486 36.5972 7.26234 36.4684 7.49861 36.3857C7.73488 36.303 7.98523 36.268 8.23512 36.2828C10.6801 36.3938 13.1201 36.6088 15.5651 36.7088C17.1031 36.7708 18.6481 36.7518 20.1861 36.6758C21.9041 36.5898 23.6181 36.3978 25.3341 36.2548C25.5152 36.243 25.6968 36.2407 25.8781 36.2478C25.9804 36.2366 26.0838 36.2457 26.1826 36.2745C26.2814 36.3033 26.3735 36.3513 26.4536 36.4158C26.5338 36.4802 26.6005 36.5599 26.6498 36.6502C26.6991 36.7404 26.7302 36.8396 26.7411 36.9418C26.7926 37.1425 26.7728 37.3549 26.685 37.5426C26.5973 37.7302 26.4471 37.8816 26.2601 37.9708C26.0611 38.0772 25.8447 38.1473 25.6211 38.1778C24.5401 38.2918 23.4581 38.4018 22.3731 38.4778C21.0621 38.5708 19.7471 38.7118 18.4361 38.6838C16.3071 38.6388 14.1801 38.4738 12.0531 38.3558C11.9181 38.3478 11.7861 38.2848 11.6531 38.2828C10.1111 38.2608 9.90012 37.9908 10.2461 39.8268C10.5981 41.6918 10.7341 43.5988 10.9121 45.4928C11.3251 49.8788 11.3851 54.2778 11.4381 58.6808C11.4892 65.2587 10.6273 71.8119 8.87712 78.1528C8.34712 80.1188 7.83212 82.0888 7.30212 84.0528C7.19611 84.2678 7.13456 84.502 7.12114 84.7413C7.10773 84.9806 7.14273 85.2201 7.22404 85.4456C7.30536 85.671 7.43132 85.8778 7.5944 86.0534C7.75747 86.2291 7.95431 86.37 8.17312 86.4678C9.30916 87.2224 10.5763 87.758 11.9091 88.0468C14.544 88.7247 17.2465 89.1054 19.9661 89.1818C23.1432 89.3074 26.3252 89.2122 29.4891 88.8969C35.4952 88.3669 41.3975 86.9987 47.0241 84.8318C47.1491 84.7808 47.2861 84.7509 47.4051 84.6879C47.9991 84.3709 48.5881 84.0458 49.1801 83.7238C49.0051 83.1238 48.8541 82.5238 48.6501 81.9318C47.7386 79.1338 47.059 76.2654 46.6181 73.3559C45.9721 69.6059 45.6241 65.8178 45.1681 62.0418C44.6558 56.5721 44.4888 51.0756 44.6681 45.5848C44.7044 42.955 44.9005 40.3299 45.2551 37.7238C45.2671 37.6338 45.2721 37.5428 45.2881 37.4528C45.5021 36.2888 45.5021 36.2868 46.6601 36.2768C47.1141 36.2768 47.5721 36.2438 48.0221 36.2838C49.0361 36.3748 49.3221 36.7758 49.1521 37.7698C49.1215 37.9492 49.0975 38.1288 49.0801 38.3088C48.9911 39.2708 48.9931 39.2708 49.9801 39.3088L55.5531 39.5028C55.6891 39.5078 55.8261 39.5108 55.9621 39.5198C58.1881 39.6658 58.9621 40.3718 59.1471 42.5828C59.3121 44.5698 59.3961 46.5628 59.4971 48.5548C59.6281 51.1368 59.7411 53.7208 59.8611 56.3038L59.6911 56.3078ZM57.7231 55.5128C57.7231 53.1058 57.7911 50.6968 57.7011 48.2928C57.6301 46.3928 57.3861 44.5058 57.1741 42.6168C57.0831 41.8048 56.8741 41.6668 56.0741 41.4878C54.2767 41.2404 52.4594 41.1694 50.6481 41.2758C50.0411 41.2598 49.4311 41.3428 48.8231 41.3758C48.6948 42.0392 48.6077 42.7098 48.5621 43.3838C48.5011 49.4608 48.2141 55.5418 49.0181 61.6008C49.3811 64.3378 49.6181 67.0898 49.9281 69.8338C50.0111 70.5778 50.0591 70.5888 50.8821 70.4698C51.2861 70.4125 51.6932 70.3791 52.1011 70.3699C53.0541 70.3439 54.0091 70.3698 54.9601 70.3158C55.4863 70.3394 56.0034 70.1734 56.4176 69.8481C56.8317 69.5227 57.1154 69.0596 57.2171 68.5428C57.4171 66.5148 57.6341 64.4848 57.7081 62.4518C57.7881 60.1468 57.7231 57.8288 57.7231 55.5128Z" fill="black"/>
<path d="M48.3002 28.3328C48.3617 29.6352 48.0494 30.9281 47.4002 32.0588C47.0028 32.7839 46.3669 33.3492 45.6002 33.6588C45.3197 33.8026 45.0058 33.8685 44.6912 33.8498C44.5213 33.828 44.3576 33.772 44.21 33.6852C44.0624 33.5984 43.9338 33.4826 43.8322 33.3448C43.7232 33.1038 43.9262 32.6958 44.0532 32.3868C44.1402 32.2239 44.2873 32.1012 44.4632 32.0448C44.9803 31.8531 45.4271 31.5092 45.7449 31.0584C46.0626 30.6077 46.2364 30.0713 46.2432 29.5198C46.4497 28.4457 46.432 27.3405 46.1911 26.2735C45.9502 25.2066 45.4913 24.201 44.8432 23.3198C44.6296 23.026 44.3785 22.7614 44.0962 22.5328C43.7679 22.2145 43.3376 22.0225 42.8815 21.9906C42.4253 21.9588 41.9725 22.0892 41.6032 22.3588C41.4912 22.4368 41.3792 22.5148 41.2602 22.5818C39.9372 23.3278 39.2872 23.0258 38.9602 21.5098C38.8511 20.7433 38.5175 20.0262 38.0014 19.4491C37.4853 18.8719 36.8098 18.4606 36.0602 18.2668C35.3617 18.0464 34.6077 18.0804 33.9319 18.3629C33.2561 18.6453 32.7021 19.1579 32.3682 19.8098C32.1682 20.1618 32.0352 20.5598 31.8112 20.8958C31.7153 21.0511 31.5803 21.1784 31.4197 21.265C31.2591 21.3516 31.0786 21.3944 30.8962 21.3891C30.7138 21.3838 30.536 21.3307 30.3807 21.235C30.2253 21.1392 30.0979 21.0043 30.0112 20.8438C29.8542 20.5738 29.8012 20.2438 29.6642 19.9598C29.5109 19.5553 29.272 19.1887 28.9638 18.8852C28.6555 18.5816 28.2853 18.3484 27.8785 18.2013C27.4717 18.0543 27.0379 17.997 26.6068 18.0333C26.1758 18.0696 25.7577 18.1988 25.3812 18.4118C24.8019 18.6795 24.291 19.0752 23.8869 19.5691C23.4828 20.0629 23.196 20.6421 23.0482 21.2628C23.0012 21.4838 22.9542 21.7058 22.8882 21.9208C22.6012 22.8648 22.0122 23.1458 21.1432 22.6938C19.9477 22.0319 18.5528 21.8262 17.2172 22.1148C16.1771 22.3667 15.2598 22.9789 14.628 23.8427C13.9963 24.7066 13.691 25.7663 13.7662 26.8338C13.9072 28.0888 13.2782 28.7148 12.1032 28.3208C11.1849 28.047 10.2003 28.0993 9.31618 28.4688C8.83144 28.6383 8.39283 28.9184 8.03507 29.2868C7.67731 29.6552 7.41024 30.1018 7.255 30.5913C7.09975 31.0808 7.06061 31.5998 7.14065 32.107C7.2207 32.6143 7.41774 33.0959 7.71618 33.5138C7.91759 33.7528 8.16006 33.954 8.43218 34.1078C9.01818 34.5398 9.15018 34.9828 8.82418 35.4698C8.74817 35.5977 8.64667 35.7086 8.52598 35.7956C8.40529 35.8826 8.26799 35.9439 8.12262 35.9756C7.97725 36.0073 7.82692 36.0088 7.68096 35.9799C7.535 35.951 7.39654 35.8925 7.27418 35.8078C7.04258 35.6645 6.83164 35.4902 6.64718 35.2898C6.15131 34.7878 5.76182 34.191 5.50202 33.535C5.24223 32.879 5.11746 32.1773 5.1352 31.4719C5.15294 30.7665 5.31282 30.072 5.60526 29.4299C5.89771 28.7877 6.31671 28.2112 6.83718 27.7348C7.90556 26.7222 9.3284 26.169 10.8002 26.1938C11.7462 26.1738 11.7462 26.1538 11.9112 25.2488C12.2074 23.8493 12.9604 22.5879 14.0518 21.6631C15.1432 20.7382 16.511 20.2024 17.9402 20.1398C18.1217 20.1288 18.3037 20.1288 18.4852 20.1398C19.3372 20.2278 20.1852 20.3248 21.0402 20.4188C21.4363 19.7153 21.8751 19.0367 22.3542 18.3868C22.8815 17.7014 23.5501 17.1376 24.3147 16.7337C25.0793 16.3297 25.9219 16.0951 26.7852 16.0458C27.5128 16.0253 28.2351 16.1747 28.8948 16.4823C29.5544 16.79 30.1333 17.2472 30.5852 17.8178C30.9582 18.2178 31.1122 18.1238 31.4052 17.8178C32.0673 17.0593 32.9424 16.5178 33.9167 16.2638C34.8909 16.0098 35.9191 16.0551 36.8672 16.3938C37.6772 16.6954 38.4184 17.1565 39.0469 17.7498C39.6754 18.3431 40.1785 19.0565 40.5262 19.8478C40.7592 20.2778 40.7972 20.4858 41.3692 20.2638C42.1615 19.9603 43.0305 19.92 43.8475 20.1489C44.6644 20.3778 45.386 20.8638 45.9052 21.5348C46.741 22.4487 47.3839 23.5217 47.7954 24.6898C48.2069 25.8578 48.3786 27.0969 48.3002 28.3328V28.3328Z" fill="black"/>
<path d="M30.3892 41.415C30.5782 41.342 31.0062 41.206 31.4082 41.015C31.6416 40.8758 31.8637 40.7183 32.0722 40.544C32.243 40.39 32.4626 40.3013 32.6924 40.2934C32.9221 40.2856 33.1473 40.3591 33.3282 40.501C33.4683 40.6394 33.5767 40.8065 33.6457 40.991C33.7148 41.1754 33.743 41.3726 33.7282 41.569C33.5745 42.3724 33.7005 43.2042 34.0852 43.926C34.317 44.544 34.7693 45.0545 35.3549 45.3591C35.9405 45.6637 36.6181 45.741 37.2572 45.576C38.4642 45.392 38.7822 45.525 39.1392 46.576C39.5392 47.754 40.0892 48.615 41.5572 48.363C41.6596 48.3455 41.7647 48.3504 41.865 48.3774C41.9654 48.4044 42.0587 48.4528 42.1385 48.5194C42.2184 48.5859 42.2829 48.669 42.3275 48.7628C42.3722 48.8567 42.3959 48.9591 42.3972 49.063C42.3669 49.2797 42.2916 49.4877 42.1762 49.6737C42.0608 49.8597 41.9079 50.0195 41.7272 50.143C41.2805 50.3457 40.7822 50.4058 40.3002 50.315C39.7377 50.2174 39.208 49.9824 38.7581 49.6309C38.3082 49.2793 37.952 48.8222 37.7212 48.3C37.6307 48.0819 37.4695 47.9005 37.2634 47.7852C37.0573 47.6698 36.8185 47.6271 36.5852 47.664C35.6245 47.6466 34.6912 47.3407 33.9066 46.7861C33.1219 46.2315 32.5222 45.4538 32.1852 44.554C32.0904 44.3481 32.0209 44.1316 31.9782 43.909C31.8652 43.341 31.7072 43.151 30.9932 43.297C30.3758 43.4621 29.727 43.4709 29.1054 43.3227C28.4837 43.1745 27.9087 42.8739 27.4322 42.448C26.9664 42.0094 26.6334 41.4486 26.471 40.8297C26.3087 40.2108 26.3237 39.5588 26.5142 38.948C26.6692 38.248 27.1602 37.568 27.1142 36.903C27.0762 36.294 26.5062 35.727 26.2072 35.123C26.0734 34.8347 25.9808 34.5291 25.9322 34.215C25.8861 33.9893 25.922 33.7545 26.0334 33.5529C26.1448 33.3513 26.3245 33.196 26.5402 33.115C26.9982 32.895 27.3242 33.173 27.6042 33.486C27.7047 33.6351 27.792 33.7927 27.8652 33.957C28.2182 34.529 28.5412 35.123 28.9422 35.657C29.1542 35.894 29.2904 36.1891 29.3332 36.5042C29.3759 36.8193 29.3234 37.14 29.1822 37.425C28.8894 38.0346 28.6495 38.6683 28.4652 39.319C28.1242 40.636 28.7792 41.434 30.3892 41.415Z" fill="black"/>
<path d="M14.466 48.8656C14.466 50.0466 14.466 51.2266 14.466 52.4076C14.4899 52.6334 14.4709 52.8618 14.41 53.0806C14.31 53.3056 14.126 53.6176 13.943 53.6436C13.8182 53.6294 13.6992 53.5832 13.5976 53.5094C13.496 53.4356 13.4151 53.3368 13.363 53.2226C13.0953 52.2205 12.9064 51.1991 12.798 50.1676C12.598 47.4126 12.487 44.6516 12.355 41.8926C12.3628 41.6216 12.4052 41.3528 12.481 41.0926C12.566 40.6926 12.836 40.3776 13.223 40.4446C13.5611 40.534 13.8601 40.7331 14.073 41.0106C14.1896 41.2548 14.2363 41.5265 14.208 41.7956C14.308 44.1506 14.4 46.5056 14.495 48.8606L14.466 48.8656Z" fill="black"/>
<path d="M10.5431 5.25499C10.5955 4.4459 10.946 3.68498 11.527 3.11939C12.1079 2.55379 12.8779 2.22372 13.6881 2.19299C14.1672 2.18791 14.6336 2.3468 15.0099 2.64329C15.3863 2.93978 15.6499 3.35604 15.7571 3.82299C15.8874 4.374 15.8881 4.94774 15.759 5.49904C15.6299 6.05034 15.3745 6.56414 15.0131 6.99999C14.7029 7.45562 14.2448 7.79003 13.7163 7.94657C13.1878 8.10312 12.6214 8.07217 12.1131 7.85899C11.6139 7.64107 11.1947 7.27347 10.9134 6.80699C10.6322 6.34052 10.5028 5.7982 10.5431 5.25499V5.25499ZM14.1431 4.91399C14.1271 4.10699 13.8671 3.80599 13.4561 3.87399C13.0782 3.9542 12.7441 4.17346 12.5202 4.48831C12.2963 4.80317 12.1988 5.19066 12.2471 5.57399C12.3361 5.86546 12.5323 6.11237 12.7961 6.26499C12.8792 6.30521 12.9694 6.3286 13.0615 6.33383C13.1537 6.33905 13.246 6.326 13.333 6.29542C13.4201 6.26484 13.5003 6.21734 13.569 6.15566C13.6376 6.09397 13.6934 6.01932 13.7331 5.93599C13.8945 5.60563 14.0318 5.26408 14.1441 4.91399H14.1431Z" fill="black"/>
<path d="M6.03405 19.8049C6.06106 20.3861 5.91852 20.9625 5.62379 21.4641C5.32906 21.9657 4.89486 22.3707 4.37405 22.63C3.78145 22.7886 3.15703 22.7847 2.56647 22.6186C1.9759 22.4525 1.44102 22.1303 1.01805 21.6859C0.835185 21.4831 0.699894 21.2421 0.622043 20.9803C0.544193 20.7186 0.525747 20.4427 0.568046 20.1729C0.652689 19.6575 0.838748 19.164 1.11545 18.7209C1.39216 18.2779 1.75401 17.8942 2.18005 17.5919C3.59405 16.5759 6.12504 17.8919 6.01604 19.3829C6.01102 19.5239 6.01704 19.665 6.03405 19.8049V19.8049ZM3.33405 21.0219C3.47944 21.0389 3.62679 21.0239 3.76579 20.978C3.90479 20.9321 4.0321 20.8564 4.13884 20.7563C4.24558 20.6561 4.32918 20.5338 4.38379 20.398C4.43841 20.2622 4.46272 20.1161 4.45505 19.9699C4.45236 19.7224 4.35791 19.4846 4.18999 19.3026C4.02207 19.1207 3.79262 19.0075 3.54605 18.9849C3.07105 18.9389 2.24605 19.8259 2.27805 20.3489C2.30005 20.6819 2.80005 20.9999 3.33405 21.0219V21.0219Z" fill="black"/>
<path d="M4.0781 77.5456C4.03438 77.7946 3.96742 78.039 3.8781 78.2756C3.4201 79.3556 2.9661 80.4386 2.4481 81.4896C2.21463 81.9248 1.91049 82.3181 1.5481 82.6536C1.45147 82.7318 1.33723 82.7854 1.21528 82.8096C1.09332 82.8338 0.967299 82.828 0.8481 82.7926C0.74485 82.7176 0.661023 82.6191 0.603617 82.5051C0.54621 82.3912 0.516891 82.2652 0.518102 82.1376C0.594733 81.6049 0.724717 81.0813 0.906099 80.5746C1.3061 79.3796 1.7461 78.1956 2.1701 77.0086C2.3701 76.4336 2.8151 76.0786 3.2391 76.1396C3.7471 76.2136 4.0891 76.7086 4.0781 77.5456Z" fill="black"/>
<path d="M52.1831 32.2C51.9894 32.7355 51.7519 33.2543 51.4731 33.751C51.3876 33.8815 51.2733 33.9907 51.1389 34.0702C51.0045 34.1496 50.8537 34.1971 50.6981 34.2091C50.5425 34.2211 50.3862 34.1972 50.2413 34.1393C50.0963 34.0813 49.9666 33.9909 49.8621 33.875C49.7849 33.7766 49.7325 33.6611 49.7095 33.5381C49.6865 33.4152 49.6936 33.2886 49.7301 33.169C49.8591 32.9699 49.945 32.7461 49.9823 32.5119C50.0196 32.2777 50.0074 32.0383 49.9467 31.8091C49.8859 31.5799 49.7779 31.3659 49.6295 31.1809C49.4812 30.9959 49.2957 30.844 49.0851 30.735C48.4321 30.256 48.3851 29.805 48.7441 29.367C48.8335 29.2492 48.9462 29.1512 49.0752 29.0791C49.2042 29.0069 49.3467 28.9621 49.4938 28.9476C49.6409 28.933 49.7894 28.949 49.93 28.9945C50.0707 29.04 50.2004 29.114 50.3111 29.212C50.8162 29.5498 51.2442 29.9907 51.5668 30.5057C51.8895 31.0206 52.0995 31.598 52.1831 32.2V32.2Z" fill="black"/>
<path d="M23.092 24.0888C23.3502 22.5792 24.1886 21.2305 25.428 20.3308C25.6226 20.2202 25.8422 20.161 26.066 20.1588C26.504 20.1238 26.795 20.3478 26.721 20.7898C26.6475 21.1818 26.5049 21.5577 26.3 21.8998C25.6557 22.7124 25.2178 23.669 25.024 24.6878C25.008 24.9288 24.578 25.2518 24.284 25.3298C24.1344 25.3386 23.9846 25.3133 23.8461 25.256C23.7076 25.1987 23.5838 25.1108 23.484 24.9988C23.3046 24.7189 23.1721 24.4115 23.092 24.0888V24.0888Z" fill="black"/>
<path d="M14.1501 27.8629C14.2227 27.1679 14.457 26.4995 14.8341 25.9112C15.2113 25.3229 15.7208 24.831 16.3221 24.4749C16.5033 24.3337 16.7324 24.2686 16.9608 24.2932C17.1892 24.3178 17.3991 24.4303 17.5461 24.6069C17.8201 24.9609 17.6671 25.2869 17.4461 25.5979C17.217 25.877 17.0091 26.1728 16.8241 26.4829C16.5276 27.0326 16.2839 27.6092 16.0961 28.2049C15.8711 29.0049 15.5731 29.3939 15.0281 29.3369C14.4401 29.2749 14.1331 28.8219 14.1501 27.8629Z" fill="black"/>
<path d="M20.85 18.2999C20.25 18.3169 19.856 17.9769 19.869 17.4709C19.8585 17.2023 19.9435 16.9387 20.109 16.7269C21.004 15.9019 21.919 15.0939 22.874 14.3409C23.0601 14.2188 23.2848 14.17 23.5048 14.2038C23.7247 14.2377 23.9243 14.3519 24.065 14.5243C24.2057 14.6967 24.2776 14.9151 24.2667 15.1374C24.2558 15.3597 24.1629 15.5701 24.006 15.7279C23.112 16.5609 22.177 17.3519 21.246 18.1449C21.1258 18.2226 20.9911 18.2753 20.85 18.2999V18.2999Z" fill="black"/>
<path d="M16.6911 14.1878C16.8842 14.1796 17.0776 14.1995 17.2651 14.2468C17.4737 14.2975 17.6659 14.4008 17.8232 14.5469C17.9806 14.693 18.0978 14.877 18.1638 15.0813C18.2298 15.2856 18.2424 15.5034 18.2002 15.7139C18.1581 15.9245 18.0626 16.1207 17.9231 16.2838C17.7307 16.5315 17.4982 16.7452 17.2351 16.9158C16.9655 17.122 16.6342 17.2312 16.2949 17.2257C15.9555 17.2203 15.6279 17.1005 15.3651 16.8858C15.1405 16.6372 14.9841 16.3347 14.911 16.0077C14.8379 15.6807 14.8507 15.3404 14.9481 15.0198C15.1311 14.4548 15.6001 14.1998 16.6911 14.1878Z" fill="black"/>
<path d="M31.8 23.2C31.9101 22.4961 32.1943 21.8309 32.6269 21.2649C33.0595 20.6989 33.6268 20.25 34.277 19.959C34.3858 19.9273 34.5006 19.9221 34.6118 19.9438C34.723 19.9654 34.8275 20.0133 34.9165 20.0834C35.0055 20.1535 35.0764 20.2439 35.1235 20.3469C35.1706 20.45 35.1923 20.5628 35.187 20.676C35.1666 20.9402 35.0792 21.1949 34.933 21.416C34.465 22.132 33.96 22.824 33.473 23.527C33.185 23.942 32.773 24.208 32.328 23.935C32.036 23.755 31.892 23.336 31.8 23.2Z" fill="black"/>
<path d="M8.89111 31.6246C8.99752 31.3523 9.14087 31.0959 9.31712 30.8626C9.71712 30.4196 10.1171 30.4726 10.4091 30.9846C10.8151 31.6846 11.1901 32.4066 11.5661 33.1256C11.6892 33.3192 11.7356 33.5518 11.6962 33.7779C11.6568 34.0039 11.5344 34.2071 11.3531 34.3476C11.2704 34.4259 11.1729 34.4868 11.0664 34.5269C10.9598 34.5669 10.8463 34.5852 10.7325 34.5807C10.6187 34.5763 10.507 34.5491 10.4039 34.5008C10.3008 34.4525 10.2084 34.3841 10.1321 34.2996C9.74815 33.9666 9.43905 33.5561 9.22515 33.095C9.01126 32.634 8.89742 32.1328 8.89111 31.6246V31.6246Z" fill="black"/>
<path d="M4.84912 14.9517C5.22867 15.0065 5.58998 15.1499 5.90375 15.3704C6.21752 15.5908 6.47493 15.8821 6.65512 16.2207C6.78712 16.6087 6.32313 17.2547 5.95513 17.1107C5.38554 16.8832 4.85485 16.5684 4.38212 16.1777C4.29597 16.0599 4.24037 15.9227 4.2203 15.7782C4.20023 15.6336 4.21632 15.4864 4.26712 15.3497C4.36612 15.1277 4.72812 15.0257 4.84912 14.9517Z" fill="black"/>
<path d="M17.4232 2.09979C17.2659 2.40154 17.0673 2.67989 16.8332 2.92679C16.5002 3.17679 16.2522 2.85679 16.0332 2.64279C15.8138 2.41745 15.609 2.1783 15.4202 1.92679C15.3525 1.85039 15.3016 1.76063 15.2708 1.66332C15.24 1.56601 15.23 1.46331 15.2414 1.36188C15.2528 1.26045 15.2854 1.16254 15.337 1.0745C15.3887 0.98646 15.4582 0.910245 15.5412 0.850789C15.6046 0.7682 15.687 0.702158 15.7814 0.658289C15.8758 0.61442 15.9795 0.594023 16.0835 0.598835C16.1875 0.603647 16.2888 0.633526 16.3787 0.685927C16.4687 0.738329 16.5447 0.811699 16.6002 0.899789C16.8956 1.28492 17.1703 1.68549 17.4232 2.09979Z" fill="black"/>
</svg>
